Coordinates
version=1
nRows=6
nColumns=63
inDegrees=yes

Units are S.I. units (second, meters, Newtons, ...)
If the header above contains a line with 'inDegrees', this indicates whether rotational values are in degrees (yes) or radians (no).

endheader
time	pelvis_tilt	pelvis_list	pelvis_rotation	pelvis_tx	pelvis_ty	pelvis_tz	hip_flexion_r	hip_adduction_r	hip_rotation_r	knee_angle_r	knee_angle_r_beta	ankle_angle_r	subtalar_angle_r	mtp_angle_r	hip_flexion_l	hip_adduction_l	hip_rotation_l	knee_angle_l	knee_angle_l_beta	ankle_angle_l	subtalar_angle_l	mtp_angle_l	L5_S1_Flex_Ext	L5_S1_Lat_Bending	L5_S1_axial_rotation	L4_L5_Flex_Ext	L4_L5_Lat_Bending	L4_L5_axial_rotation	L3_L4_Flex_Ext	L3_L4_Lat_Bending	L3_L4_axial_rotation	L2_L3_Flex_Ext	L2_L3_Lat_Bending	L2_L3_axial_rotation	L1_L2_Flex_Ext	L1_L2_Lat_Bending	L1_L2_axial_rotation	L1_T12_Flex_Ext	L1_T12_Lat_Bending	L1_T12_axial_rotation	Abs_r3	Abs_r2	Abs_r1	Abs_t1	Abs_t2	neck_flexion	neck_bending	neck_rotation	arm_flex_r	arm_add_r	arm_rot_r	elbow_flex_r	pro_sup_r	wrist_flex_r	wrist_dev_r	arm_flex_l	arm_add_l	arm_rot_l	elbow_flex_l	pro_sup_l	wrist_flex_l	wrist_dev_l
      0.00000000	     -2.23455723	     -4.27604147	     92.20074477	      0.23232987	      0.98255926	      0.50193793	      3.28000793	     -1.80294337	     -6.56451287	      5.32509515	      0.09294044	     21.18219347	      9.01777299	      0.00000000	      2.08385737	      2.33825786	     -4.91632590	      1.14842106	      0.02004373	     20.27495035	      2.52993675	      0.00000000	      0.19407962	     -0.44226433	      0.67964322	      0.36042526	     -0.58821156	      0.72212092	      0.31885341	     -1.07532150	      0.72212092	      0.22181360	     -1.07532150	      0.59468782	      0.18022233	     -0.90186543	      0.55221012	      0.11089709	     -0.68506745	      0.50973242	      1.38629131	     -5.00298259	      3.77997171	      0.00000000	      0.00000000	     27.77935228	      3.58556858	      2.22395098	      8.46007496	    -27.35876883	     57.06228507	     12.20569820	     10.48452619	     -5.88639328	     -2.43701314	      5.23624215	    -39.34343087	    160.57463797	      8.90485852	     27.17703653	      4.63967693	      4.27782040
      0.01694915	     -2.66695579	     -4.38461960	     91.70247780	      0.23247769	      0.98246950	      0.50068620	      3.25890264	     -2.51215833	     -9.49981681	      6.01343033	      0.10495416	     21.72477586	     13.61099928	      0.00000000	      2.11090858	      2.76320619	     -9.68569727	      1.18099554	      0.02061226	     21.88558104	      8.39060033	      0.00000000	      0.19917776	     -0.49776783	      0.94387472	      0.36989301	     -0.66203121	      1.00286689	      0.32722914	     -1.21027270	      1.00286689	      0.22764026	     -1.21027270	      0.82589038	      0.18495647	     -1.01504816	      0.76689821	      0.11381017	     -0.77104237	      0.70790604	      1.42270680	     -5.63084923	      5.24954801	      0.00000000	      0.00000000	     27.86507140	      3.39904902	      1.37625328	      7.96076102	    -27.55843193	     59.68724279	     11.79469434	     10.44789578	     -6.46730865	     -3.40309639	      6.23055555	    -39.45438266	    160.25220156	      8.46809104	     32.28148123	      3.53682324	      1.87850896
      0.03389831	     -3.06223584	     -4.44990567	     91.41902817	      0.23279023	      0.98231942	      0.49958433	      3.10790338	     -2.99327271	     -9.82389277	      6.23773975	      0.10886910	     21.86968204	     14.52314960	      0.00000000	      2.06678643	      3.19986182	    -10.22085920	      1.10411325	      0.01927041	     22.32590827	      8.58159172	      0.00000000	      0.20403668	     -0.56052984	      1.10558626	      0.37891652	     -0.74550468	      1.17468540	      0.33521186	     -1.36287224	      1.17468540	      0.23319352	     -1.36287224	      0.96738797	      0.18946846	     -1.14303244	      0.89828883	      0.11658656	     -0.86826072	      0.82918969	      1.45741360	     -6.34082561	      6.14893908	      0.00000000	      0.00000000	     27.92663808	      3.55925502	      0.38148167	      7.52354369	    -27.42401078	     60.33191060	     11.57593535	     11.06278043	     -6.86261882	     -3.52972068	      6.75943583	    -39.70358155	    159.48853889	      8.16487278	     31.93385507	      3.38156321	      0.88809053
      0.05084746	     -3.21732402	     -4.49776235	     91.47546465	      0.23247300	      0.98212734	      0.49867899	      2.92798313	     -3.20000653	    -10.00900825	      6.27559476	      0.10952979	     22.05161724	     14.78195711	      0.00000000	      2.04780698	      3.38761291	    -10.21912176	      1.06894756	      0.01865665	     22.68218408	      8.77597354	      0.00000000	      0.21137304	     -0.59287942	      1.19090765	      0.39254088	     -0.78852963	      1.26533938	      0.34726477	     -1.44152703	      1.26533938	      0.24157825	     -1.44152703	      1.04204420	      0.19628101	     -1.20899972	      0.96761247	      0.12077856	     -0.91837023	      0.89318074	      1.50981652	     -6.70677060	      6.62347109	      0.00000000	      0.00000000	     27.95964835	      3.84215968	     -0.05899787	      7.09237394	    -27.29145847	     60.31392855	     11.48325730	     10.99669820	     -6.95453523	     -3.19837053	      7.12346037	    -39.66229044	    158.81247878	      7.85686828	     31.40464391	      3.42213961	      0.77894489
      0.06779661	     -3.54521737	     -4.56331403	     91.20759674	      0.23307910	      0.98190684	      0.49829236	      3.02768954	     -3.63771359	    -10.69475318	      6.52170866	      0.11382529	     22.47587201	     16.42346932	      0.00000000	      2.07488494	      3.71886795	    -11.48575714	      1.04298048	      0.01820344	     22.68665347	      9.89350096	      0.00000000	      0.21821120	     -0.65961403	      1.24935629	      0.40524003	     -0.87728666	      1.32744106	      0.35849919	     -1.60378556	      1.32744106	      0.24939358	     -1.60378556	      1.09318675	      0.20263092	     -1.34508494	      1.01510198	      0.12468588	     -1.02174214	      0.93701722	      1.55866081	     -7.46168586	      6.94854487	      0.00000000	      0.00000000	     28.00796811	      3.70662941	     -1.94837000	      6.95865173	    -26.80462352	     59.15275153	     11.71510762	     10.25236107	     -7.00476981	     -2.44726837	      6.91073859	    -40.33525850	    151.55577834	      8.22035524	     25.18931178	      4.59401709	      2.87342710
      0.08474576	     -3.89912083	     -4.59451784	     91.44688376	      0.23328361	      0.98172135	      0.49793277	      2.87649609	     -3.98893011	    -10.69377772	      6.33327653	      0.11053653	     22.74944759	     16.47013045	      0.00000000	      2.09758268	      4.06723614	    -11.54227206	      1.05484467	      0.01841051	     22.47026924	     10.25350424	      0.00000000	      0.22101360	     -0.73401789	      1.20952937	      0.41044436	     -0.97624380	      1.28512496	      0.36310324	     -1.78469110	      1.28512496	      0.25259644	     -1.78469110	      1.05833820	      0.20523323	     -1.49680928	      0.98274262	      0.12628717	     -1.13699371	      0.90714703	      1.57867804	     -8.30335719	      6.72703952	      0.00000000	      0.00000000	     28.03939648	      4.72566434	     -2.82687069	      6.97562250	    -26.17744438	     58.28769465	     11.84954601	      9.59976107	     -6.90057930	     -1.19355990	      7.06421332	    -40.68397344	    148.64767824	      8.61727740	     22.60293858	      4.57526753	      3.82254902
